<?xml version="1.0" encoding="UTF-8"?>
<svg width="253px" height="86px" viewBox="0 0 253 86" version="1.1" xmlns="http://www.w3.org/2000/svg" xmlns:xlink="http://www.w3.org/1999/xlink">
    <!-- Generator: Sketch 43.1 (39012) - http://www.bohemiancoding.com/sketch -->
    <title>logo-web-app</title>
    <desc>Created with Sketch.</desc>
    <defs></defs>
    <g id="Page-1" stroke="none" stroke-width="1" fill="none" fill-rule="evenodd">
        <g id="logo-web-app" fill-rule="nonzero" fill="#6356AB">
            <g id="Group">
                <path d="M68.9,42.7 C69.2,42.4 69.4,42.1 69.7,41.9 C70.6,40.9 71.6,39.9 72.5,38.9 C76.3,35 78.4,29.9 78.4,24.5 C78.4,24.1 78.5,22.6 78.5,22.4 C78,10 67.6,0 55.3,0 L16.4,0 L16.4,15.5 L0.7,15.5 L0.7,85.5 L55.9,85.5 C68.2,85.5 78.5,74.7 78.5,61.9 C78.5,52.9 72.8,46.4 68.9,42.7 Z M24.2,23.4 L55.2,23.4 L35.7,42.9 L54.9,62.2 L24.2,62.2 L24.2,23.4 L24.2,23.4 Z M55.9,77.7 L8.5,77.7 L8.5,23.3 L16.3,23.3 L16.3,70 L54.9,70 C58.1,70 60.9,68.1 62.1,65.2 C63.3,62.3 62.7,58.9 60.4,56.7 L46.7,42.9 L60.7,28.9 C62.9,26.7 63.6,23.3 62.4,20.4 C61.2,17.5 58.3,15.6 55.2,15.6 L24.2,15.6 L24.2,7.9 L55.3,7.9 C63.5,7.9 70.4,14.5 70.7,22.6 C70.7,23 70.6,24.3 70.6,24.3 L70.6,24.5 C70.6,29 68.3,32.1 66.9,33.6 C65.9,34.6 64.9,35.6 64,36.6 C62.5,38.2 61.2,39.6 60.6,40.2 L57.8,43 L60.6,45.8 C61,46.2 61.5,46.6 62,47.1 C65.2,50.1 70.7,55.1 70.7,62.1 C70.7,70.4 63.8,77.7 55.9,77.7 Z" id="Shape"></path>
                <g transform="translate(95.000000, 22.000000)" id="Shape">
                    <path d="M9.5,2.7 C10.7,2.4 12,2.2 13.6,1.9 C15.2,1.7 16.8,1.6 18.5,1.6 C20.1,1.6 21.6,1.7 23.1,2 C24.6,2.3 25.9,2.7 27.1,3.4 C28.3,4.1 29.2,4.9 29.9,6 C30.6,7.1 31,8.5 31,10.2 C31,11.4 30.8,12.6 30.3,13.6 C29.9,14.7 29.3,15.6 28.6,16.4 C27.9,17.2 27.1,17.9 26.1,18.5 C25.2,19.1 24.2,19.6 23.2,19.9 C24,20.1 24.8,20.5 25.5,20.9 C26.2,21.4 26.7,21.9 27.2,22.6 C27.7,23.2 28,23.9 28.3,24.7 C28.6,25.5 28.7,26.3 28.7,27.1 C28.7,29.7 28.2,31.8 27.1,33.5 C26.1,35.2 24.7,36.5 23,37.5 C21.3,38.5 19.4,39.2 17.2,39.5 C15,39.9 12.8,40.1 10.4,40.1 C8.7,40.1 7,40 5.4,39.8 C3.8,39.6 2.3,39.4 0.9,39.1 L9.5,2.7 Z M5,36.4 C5.8,36.5 6.6,36.6 7.5,36.7 C8.4,36.8 9.4,36.8 10.4,36.8 C12.2,36.8 13.9,36.7 15.6,36.4 C17.3,36.1 18.8,35.7 20.2,35 C21.5,34.3 22.6,33.3 23.4,32.1 C24.2,30.9 24.6,29.3 24.6,27.3 C24.6,25.2 23.9,23.7 22.4,22.9 C21,22.1 18.6,21.7 15.3,21.7 L8.4,21.7 L5,36.4 Z M14.4,18.4 C19,18.4 22.2,17.7 24.2,16.3 C26.2,14.9 27.2,13.1 27.2,10.7 C27.2,8.5 26.4,7 24.9,6.1 C23.4,5.2 21,4.7 17.9,4.7 C16.9,4.7 16,4.7 15.1,4.8 C14.2,4.9 13.4,5 12.7,5.1 L9.4,18.3 L14.4,18.4 L14.4,18.4 Z"></path>
                    <path d="M40,11.5 L43.5,11.5 L36.7,39.6 L33.2,39.6 L40,11.5 Z M41.4,3.3 C41.4,2.4 41.7,1.6 42.2,1.2 C42.7,0.7 43.3,0.5 43.9,0.5 C44.6,0.5 45.2,0.7 45.6,1.2 C46,1.7 46.2,2.2 46.2,3 C46.2,3.9 45.9,4.5 45.3,5 C44.7,5.5 44.1,5.7 43.6,5.7 C42.9,5.7 42.3,5.5 42,5.1 C41.6,4.5 41.4,4 41.4,3.3 Z"></path>
                    <path d="M53.2,3.3 L56.9,2.6 L54.8,11.5 L64.7,11.5 L64,14.5 L54,14.5 L50.7,28.2 C50.5,28.9 50.4,29.5 50.2,30.3 C50.1,31 50,31.8 50,32.5 C50,34.1 50.4,35.3 51.2,35.9 C52,36.6 53,36.9 54.2,36.9 C55.4,36.9 56.4,36.8 57.2,36.5 C58.1,36.2 59,35.9 59.9,35.5 L60.2,38.7 C59.2,39.1 58.1,39.4 56.9,39.7 C55.7,40 54.5,40.1 53.3,40.1 C52.4,40.1 51.5,40 50.6,39.8 C49.8,39.6 49,39.2 48.4,38.7 C47.8,38.2 47.3,37.5 46.9,36.7 C46.5,35.9 46.3,34.8 46.3,33.6 C46.3,32 46.6,30.3 47.1,28.2 L53.2,3.3 Z"></path>
                    <path d="M76.5,40 C74.7,40 72.7,39.9 70.7,39.8 C68.7,39.6 66.8,39.4 65.2,39 L73.9,2.6 C75.5,2.2 77.2,2 79.1,1.8 C80.9,1.7 82.7,1.6 84.6,1.6 C86.1,1.6 87.7,1.7 89.2,1.9 C90.8,2.1 92.2,2.5 93.5,3.2 C94.8,3.8 95.8,4.7 96.6,5.8 C97.4,6.9 97.8,8.3 97.8,10.1 C97.8,12 97.3,13.8 96.2,15.5 C95.1,17.2 93.3,18.6 90.8,19.6 C92.4,20.3 93.6,21.2 94.5,22.4 C95.4,23.6 95.8,25.1 95.8,26.7 C95.8,30.9 94.1,34.2 90.8,36.5 C87.5,38.8 82.8,40 76.5,40 Z M75.9,22.6 L73.1,34.1 C73.6,34.2 74.3,34.2 75.1,34.3 C75.9,34.4 76.9,34.4 77.9,34.4 C79.1,34.4 80.3,34.3 81.6,34.1 C82.9,33.9 84.1,33.6 85.1,33.1 C86.2,32.6 87,31.9 87.7,30.9 C88.4,30 88.8,28.7 88.8,27.3 C88.8,25.9 88.3,24.8 87.2,23.9 C86.2,23 84.4,22.6 82,22.6 L75.9,22.6 Z M77.2,17.3 L82.4,17.3 C83.5,17.3 84.6,17.2 85.7,17 C86.7,16.8 87.7,16.4 88.4,15.9 C89.2,15.4 89.8,14.8 90.3,14.1 C90.8,13.4 91,12.5 91,11.4 C91,9.7 90.4,8.6 89.1,8 C87.9,7.4 86.2,7.1 84.1,7.1 C83.3,7.1 82.4,7.1 81.6,7.2 C80.8,7.3 80.1,7.3 79.6,7.4 L77.2,17.3 Z"></path>
                    <path d="M124,28.5 C123.9,28.9 123.8,29.6 123.7,30.5 C123.6,31.4 123.5,32.3 123.5,33.1 C123.5,34.2 123.6,35.2 123.8,36.2 C124,37.2 124.3,38.2 124.7,39.2 L118.8,40.1 C118.4,39.2 118,38.3 117.8,37.3 C116.9,38.1 115.8,38.8 114.5,39.4 C113.2,40 111.7,40.4 110,40.4 C108.3,40.4 106.8,40.1 105.6,39.6 C104.4,39 103.4,38.3 102.6,37.3 C101.8,36.3 101.3,35.1 100.9,33.8 C100.5,32.5 100.4,31 100.4,29.5 C100.4,26.9 100.9,24.4 101.8,22.1 C102.7,19.8 104.1,17.8 105.7,16.2 C107.4,14.5 109.4,13.2 111.7,12.3 C114,11.3 116.5,10.9 119.3,10.9 C120.7,10.9 122.1,11 123.6,11.3 C125,11.5 126.5,12 127.9,12.6 L124,28.5 Z M120.4,16.3 C119.7,16.2 118.9,16.1 118.1,16.1 C116.5,16.1 115,16.5 113.6,17.2 C112.2,17.9 111,18.8 110,20 C109,21.2 108.2,22.5 107.7,24 C107.2,25.5 106.9,27.1 106.9,28.8 C106.9,29.6 107,30.4 107.1,31.1 C107.2,31.8 107.5,32.5 107.8,33 C108.1,33.5 108.6,34 109.2,34.3 C109.8,34.6 110.5,34.8 111.4,34.8 C112.6,34.8 113.6,34.6 114.5,34.1 C115.4,33.6 116.2,33 117,32.1 C117,31.2 117.1,30.3 117.2,29.4 C117.3,28.6 117.5,27.7 117.7,26.9 L120.4,16.3 Z"></path>
                    <path d="M157.2,11.2 C156.5,13.3 155.7,15.4 154.8,17.6 C153.9,19.8 153,22.1 151.9,24.3 C150.8,26.5 149.7,28.8 148.4,31 C147.2,33.2 145.8,35.4 144.4,37.5 C143.3,39.1 142.3,40.6 141.1,42.1 C140,43.6 138.8,44.9 137.4,46 C136.1,47.1 134.6,48 133,48.7 C131.4,49.4 129.6,49.7 127.6,49.7 C126.5,49.7 125.5,49.6 124.6,49.3 C123.7,49 123,48.8 122.3,48.4 L124.4,43.1 C124.9,43.4 125.5,43.6 126.1,43.8 C126.7,44 127.4,44.1 128.2,44.1 C129.9,44.1 131.4,43.7 132.7,42.8 C134,41.9 135.2,40.7 136.2,39.2 C135,35.2 134.1,30.8 133.3,26.1 C132.5,21.4 132,16.4 131.7,11.1 L138.3,11.1 C138.3,12.6 138.4,14.3 138.5,16.1 C138.6,17.9 138.8,19.8 139,21.8 C139.2,23.7 139.4,25.6 139.7,27.5 C140,29.4 140.3,31.1 140.7,32.7 C141.8,31 142.8,29.1 143.7,27.2 C144.6,25.3 145.5,23.4 146.3,21.5 C147.1,19.6 147.8,17.8 148.4,16 C149,14.2 149.5,12.6 150,11.1 L157.2,11.2 L157.2,11.2 L157.2,11.2 Z"></path>
                </g>
            </g>
        </g>
    </g>
</svg>